<?xml version="1.0" encoding="iso-8859-1"?>
<!-- Uploaded to: SVG Repo, www.svgrepo.com, Generator: SVG Repo Mixer Tools -->
<svg fill="#000000" version="1.1" id="Layer_1" xmlns="http://www.w3.org/2000/svg" xmlns:xlink="http://www.w3.org/1999/xlink" 
	 viewBox="0 0 512 512" xml:space="preserve">
<g>
	<g>
		<g>
			<path d="M271.673,264.129V41.796C271.673,18.75,252.924,0,229.878,0h-31.347c-23.046,0-41.796,18.75-41.796,41.796v222.333
				c-44.66,21.873-73.143,67.161-73.143,117.258c0,72.02,58.593,130.612,130.612,130.612s130.612-58.593,130.612-130.612
				C344.816,331.288,316.333,285.999,271.673,264.129z M214.204,491.102c-60.496,0-109.714-49.218-109.714-109.714
				c0-44.04,26.215-83.661,66.787-100.937c3.855-1.642,6.356-5.425,6.356-9.614V41.796c0-11.523,9.375-20.898,20.898-20.898h31.347
				c11.523,0,20.898,9.375,20.898,20.898v229.041c0,4.189,2.501,7.974,6.356,9.614c40.571,17.274,66.787,56.894,66.787,100.937
				C323.918,441.884,274.701,491.102,214.204,491.102z"/>
			<polygon points="193.306,245.551 229.878,245.551 229.878,224.653 214.204,224.653 214.204,203.755 229.878,203.755 
				229.878,182.857 214.204,182.857 214.204,161.959 229.878,161.959 229.878,141.061 214.204,141.061 214.204,120.163 
				229.878,120.163 229.878,99.265 214.204,99.265 214.204,78.367 229.878,78.367 229.878,57.469 193.306,57.469 			"/>
			<path d="M135.837,381.388h20.898c0-31.689,25.781-57.469,57.469-57.469V303.02C170.992,303.02,135.837,338.176,135.837,381.388z"
				/>
			<rect x="135.837" y="397.061" width="20.898" height="20.898"/>
			<path d="M406.325,78.367c-1.194-5.239-3.262-10.146-6.048-14.562l14.621-14.621l-14.778-14.778l-14.621,14.621
				c-4.416-2.786-9.323-4.855-14.562-6.048V20.898H350.04v22.083c-5.239,1.194-10.146,3.262-14.562,6.048l-14.621-14.621
				l-14.778,14.778L320.7,63.807c-2.785,4.416-4.854,9.323-6.048,14.562h-22.081v20.898h22.083
				c1.194,5.239,3.262,10.146,6.048,14.562l-14.621,14.621l14.778,14.778l14.621-14.621c4.416,2.786,9.323,4.855,14.562,6.048
				v22.081h20.898v-22.083c5.239-1.194,10.146-3.262,14.562-6.048l14.621,14.621l14.778-14.778l-14.621-14.621
				c2.785-4.416,4.854-9.323,6.048-14.562h22.081V78.367H406.325z M360.49,114.939c-14.404,0-26.122-11.719-26.122-26.122
				s11.719-26.122,26.122-26.122s26.122,11.719,26.122,26.122S374.894,114.939,360.49,114.939z"/>
		</g>
	</g>
</g>
</svg>